<svg width="192" height="227" viewBox="0 0 192 227" fill="none" xmlns="http://www.w3.org/2000/svg">
<path d="M19.6274 113.545V54.6124C19.6274 50.2649 22.468 46.3978 26.6873 45.0353L59.7398 34.3617L92.7924 23.6882C94.8759 23.0154 97.1241 23.0154 99.2077 23.6882L132.26 34.3617L165.313 45.0353C169.532 46.3978 172.373 50.2649 172.373 54.6124V113.545C172.373 142.375 157.865 163.488 141.431 178.166C124.99 192.851 106.669 201.047 99.1965 204.011C97.1295 204.83 94.8705 204.83 92.8036 204.011C85.3312 201.047 67.0101 192.851 50.5687 178.166C34.1349 163.488 19.6274 142.375 19.6274 113.545Z" fill="#F36879" fill-opacity="0.07" stroke="#F36879" stroke-width="1.5"/>
<path d="M69.0085 84.893C69.0085 83.9316 69.2232 83.073 69.6525 82.317C70.0912 81.5516 70.6839 80.959 71.4305 80.539C72.1865 80.1096 73.0312 79.895 73.9645 79.895C75.0565 79.895 76.0132 80.175 76.8345 80.735C77.6559 81.295 78.2299 82.0696 78.5565 83.059H76.3025C76.0785 82.5923 75.7612 82.2423 75.3505 82.009C74.9492 81.7756 74.4825 81.659 73.9505 81.659C73.3812 81.659 72.8725 81.7943 72.4245 82.065C71.9859 82.3263 71.6405 82.6996 71.3885 83.185C71.1459 83.6703 71.0245 84.2396 71.0245 84.893C71.0245 85.537 71.1459 86.1063 71.3885 86.601C71.6405 87.0863 71.9859 87.4643 72.4245 87.735C72.8725 87.9963 73.3812 88.127 73.9505 88.127C74.4825 88.127 74.9492 88.0103 75.3505 87.777C75.7612 87.5343 76.0785 87.1796 76.3025 86.713H78.5565C78.2299 87.7116 77.6559 88.491 76.8345 89.051C76.0225 89.6016 75.0659 89.877 73.9645 89.877C73.0312 89.877 72.1865 89.667 71.4305 89.247C70.6839 88.8176 70.0912 88.225 69.6525 87.469C69.2232 86.713 69.0085 85.8543 69.0085 84.893ZM82.3306 79.433V89.793H80.3706V79.433H82.3306ZM85.4011 81.113C85.0558 81.113 84.7665 81.0056 84.5331 80.791C84.3091 80.567 84.1971 80.2916 84.1971 79.965C84.1971 79.6383 84.3091 79.3676 84.5331 79.153C84.7665 78.929 85.0558 78.817 85.4011 78.817C85.7465 78.817 86.0311 78.929 86.2551 79.153C86.4885 79.3676 86.6051 79.6383 86.6051 79.965C86.6051 80.2916 86.4885 80.567 86.2551 80.791C86.0311 81.0056 85.7465 81.113 85.4011 81.113ZM86.3671 82.037V89.793H84.4071V82.037H86.3671ZM87.9396 85.915C87.9396 85.1123 88.1029 84.4123 88.4296 83.815C88.7563 83.2083 89.2089 82.7416 89.7876 82.415C90.3663 82.079 91.0289 81.911 91.7756 81.911C92.7369 81.911 93.5303 82.1536 94.1556 82.639C94.7903 83.115 95.2149 83.787 95.4296 84.655H93.3156C93.2036 84.319 93.0123 84.0576 92.7416 83.871C92.4803 83.675 92.1536 83.577 91.7616 83.577C91.2016 83.577 90.7583 83.7823 90.4316 84.193C90.1049 84.5943 89.9416 85.1683 89.9416 85.915C89.9416 86.6523 90.1049 87.2263 90.4316 87.637C90.7583 88.0383 91.2016 88.239 91.7616 88.239C92.5549 88.239 93.0729 87.8843 93.3156 87.175H95.4296C95.2149 88.015 94.7903 88.6823 94.1556 89.177C93.5209 89.6716 92.7276 89.919 91.7756 89.919C91.0289 89.919 90.3663 89.7556 89.7876 89.429C89.2089 89.093 88.7563 88.6263 88.4296 88.029C88.1029 87.4223 87.9396 86.7176 87.9396 85.915ZM101.597 89.793L98.9655 86.489V89.793H97.0055V79.433H98.9655V85.327L101.569 82.037H104.117L100.701 85.929L104.145 89.793H101.597ZM111.079 83.647V87.399C111.079 87.6603 111.14 87.8516 111.261 87.973C111.392 88.085 111.607 88.141 111.905 88.141H112.815V89.793H111.583C109.931 89.793 109.105 88.9903 109.105 87.385V83.647H108.181V82.037H109.105V80.119H111.079V82.037H112.815V83.647H111.079ZM117.809 89.919C117.062 89.919 116.39 89.7556 115.793 89.429C115.196 89.093 114.724 88.6216 114.379 88.015C114.043 87.4083 113.875 86.7083 113.875 85.915C113.875 85.1216 114.048 84.4216 114.393 83.815C114.748 83.2083 115.228 82.7416 115.835 82.415C116.442 82.079 117.118 81.911 117.865 81.911C118.612 81.911 119.288 82.079 119.895 82.415C120.502 82.7416 120.978 83.2083 121.323 83.815C121.678 84.4216 121.855 85.1216 121.855 85.915C121.855 86.7083 121.673 87.4083 121.309 88.015C120.954 88.6216 120.469 89.093 119.853 89.429C119.246 89.7556 118.565 89.919 117.809 89.919ZM117.809 88.211C118.164 88.211 118.495 88.127 118.803 87.959C119.12 87.7816 119.372 87.5203 119.559 87.175C119.746 86.8296 119.839 86.4096 119.839 85.915C119.839 85.1776 119.643 84.613 119.251 84.221C118.868 83.8196 118.397 83.619 117.837 83.619C117.277 83.619 116.806 83.8196 116.423 84.221C116.05 84.613 115.863 85.1776 115.863 85.915C115.863 86.6523 116.045 87.2216 116.409 87.623C116.782 88.015 117.249 88.211 117.809 88.211ZM74.7006 101.021V102.603H72.0966V110.793H70.1366V102.603H67.5326V101.021H74.7006ZM83.5927 103.037V110.793H81.6187V109.813C81.3667 110.149 81.0354 110.415 80.6247 110.611C80.2234 110.798 79.7847 110.891 79.3087 110.891C78.7021 110.891 78.1654 110.765 77.6987 110.513C77.2321 110.252 76.8634 109.874 76.5927 109.379C76.3314 108.875 76.2007 108.278 76.2007 107.587V103.037H78.1607V107.307C78.1607 107.923 78.3147 108.399 78.6227 108.735C78.9307 109.062 79.3507 109.225 79.8827 109.225C80.4241 109.225 80.8487 109.062 81.1567 108.735C81.4647 108.399 81.6187 107.923 81.6187 107.307V103.037H83.5927ZM87.6266 104.241C87.8786 103.83 88.2052 103.508 88.6066 103.275C89.0172 103.042 89.4839 102.925 90.0066 102.925V104.983H89.4886C88.8726 104.983 88.4059 105.128 88.0886 105.417C87.7806 105.706 87.6266 106.21 87.6266 106.929V110.793H85.6666V103.037H87.6266V104.241ZM95.7647 102.925C96.6887 102.925 97.4354 103.219 98.0047 103.807C98.5741 104.386 98.8587 105.198 98.8587 106.243V110.793H96.8987V106.509C96.8987 105.893 96.7447 105.422 96.4367 105.095C96.1287 104.759 95.7087 104.591 95.1767 104.591C94.6354 104.591 94.2061 104.759 93.8887 105.095C93.5807 105.422 93.4267 105.893 93.4267 106.509V110.793H91.4667V103.037H93.4267V104.003C93.6881 103.667 94.0194 103.406 94.4207 103.219C94.8314 103.023 95.2794 102.925 95.7647 102.925ZM108.875 110.891C107.96 110.891 107.12 110.676 106.355 110.247C105.589 109.818 104.983 109.225 104.535 108.469C104.087 107.704 103.863 106.84 103.863 105.879C103.863 104.927 104.087 104.073 104.535 103.317C104.983 102.552 105.589 101.954 106.355 101.525C107.12 101.096 107.96 100.881 108.875 100.881C109.799 100.881 110.639 101.096 111.395 101.525C112.16 101.954 112.762 102.552 113.201 103.317C113.649 104.073 113.873 104.927 113.873 105.879C113.873 106.84 113.649 107.704 113.201 108.469C112.762 109.225 112.16 109.818 111.395 110.247C110.629 110.676 109.789 110.891 108.875 110.891ZM108.875 109.141C109.463 109.141 109.981 109.01 110.429 108.749C110.877 108.478 111.227 108.096 111.479 107.601C111.731 107.106 111.857 106.532 111.857 105.879C111.857 105.226 111.731 104.656 111.479 104.171C111.227 103.676 110.877 103.298 110.429 103.037C109.981 102.776 109.463 102.645 108.875 102.645C108.287 102.645 107.764 102.776 107.307 103.037C106.859 103.298 106.509 103.676 106.257 104.171C106.005 104.656 105.879 105.226 105.879 105.879C105.879 106.532 106.005 107.106 106.257 107.601C106.509 108.096 106.859 108.478 107.307 108.749C107.764 109.01 108.287 109.141 108.875 109.141ZM119.769 102.925C120.693 102.925 121.439 103.219 122.009 103.807C122.578 104.386 122.863 105.198 122.863 106.243V110.793H120.903V106.509C120.903 105.893 120.749 105.422 120.441 105.095C120.133 104.759 119.713 104.591 119.181 104.591C118.639 104.591 118.21 104.759 117.893 105.095C117.585 105.422 117.431 105.893 117.431 106.509V110.793H115.471V103.037H117.431V104.003C117.692 103.667 118.023 103.406 118.425 103.219C118.835 103.023 119.283 102.925 119.769 102.925ZM66.3328 125.045C66.3328 125.568 66.2068 126.058 65.9548 126.515C65.7122 126.972 65.3248 127.341 64.7928 127.621C64.2702 127.901 63.6075 128.041 62.8048 128.041H61.1668V131.793H59.2068V122.021H62.8048C63.5608 122.021 64.2048 122.152 64.7368 122.413C65.2688 122.674 65.6655 123.034 65.9268 123.491C66.1975 123.948 66.3328 124.466 66.3328 125.045ZM62.7208 126.459C63.2622 126.459 63.6635 126.338 63.9248 126.095C64.1862 125.843 64.3168 125.493 64.3168 125.045C64.3168 124.093 63.7848 123.617 62.7208 123.617H61.1668V126.459H62.7208ZM69.8244 125.241C70.0764 124.83 70.4031 124.508 70.8044 124.275C71.2151 124.042 71.6818 123.925 72.2044 123.925V125.983H71.6864C71.0704 125.983 70.6038 126.128 70.2864 126.417C69.9784 126.706 69.8244 127.21 69.8244 127.929V131.793H67.8644V124.037H69.8244V125.241ZM77.1086 131.919C76.3619 131.919 75.6899 131.756 75.0926 131.429C74.4952 131.093 74.0239 130.622 73.6786 130.015C73.3426 129.408 73.1746 128.708 73.1746 127.915C73.1746 127.122 73.3472 126.422 73.6926 125.815C74.0472 125.208 74.5279 124.742 75.1346 124.415C75.7412 124.079 76.4179 123.911 77.1646 123.911C77.9112 123.911 78.5879 124.079 79.1946 124.415C79.8012 124.742 80.2772 125.208 80.6226 125.815C80.9772 126.422 81.1546 127.122 81.1546 127.915C81.1546 128.708 80.9726 129.408 80.6086 130.015C80.2539 130.622 79.7686 131.093 79.1526 131.429C78.5459 131.756 77.8646 131.919 77.1086 131.919ZM77.1086 130.211C77.4632 130.211 77.7946 130.127 78.1026 129.959C78.4199 129.782 78.6719 129.52 78.8586 129.175C79.0452 128.83 79.1386 128.41 79.1386 127.915C79.1386 127.178 78.9426 126.613 78.5506 126.221C78.1679 125.82 77.6966 125.619 77.1366 125.619C76.5766 125.619 76.1052 125.82 75.7226 126.221C75.3492 126.613 75.1626 127.178 75.1626 127.915C75.1626 128.652 75.3446 129.222 75.7086 129.623C76.0819 130.015 76.5486 130.211 77.1086 130.211ZM85.0143 125.647V129.399C85.0143 129.66 85.075 129.852 85.1963 129.973C85.327 130.085 85.5417 130.141 85.8403 130.141H86.7503V131.793H85.5183C83.8663 131.793 83.0403 130.99 83.0403 129.385V125.647H82.1163V124.037H83.0403V122.119H85.0143V124.037H86.7503V125.647H85.0143ZM95.5101 127.747C95.5101 128.027 95.4914 128.279 95.4541 128.503H89.7841C89.8307 129.063 90.0267 129.502 90.3721 129.819C90.7174 130.136 91.1421 130.295 91.6461 130.295C92.3741 130.295 92.8921 129.982 93.2001 129.357H95.3141C95.0901 130.104 94.6607 130.72 94.0261 131.205C93.3914 131.681 92.6121 131.919 91.6881 131.919C90.9414 131.919 90.2694 131.756 89.6721 131.429C89.0841 131.093 88.6221 130.622 88.2861 130.015C87.9594 129.408 87.7961 128.708 87.7961 127.915C87.7961 127.112 87.9594 126.408 88.2861 125.801C88.6127 125.194 89.0701 124.728 89.6581 124.401C90.2461 124.074 90.9227 123.911 91.6881 123.911C92.4254 123.911 93.0834 124.07 93.6621 124.387C94.2501 124.704 94.7027 125.157 95.0201 125.745C95.3467 126.324 95.5101 126.991 95.5101 127.747ZM93.4801 127.187C93.4707 126.683 93.2887 126.282 92.9341 125.983C92.5794 125.675 92.1454 125.521 91.6321 125.521C91.1467 125.521 90.7361 125.67 90.4001 125.969C90.0734 126.258 89.8727 126.664 89.7981 127.187H93.4801ZM96.5767 127.915C96.5767 127.112 96.74 126.412 97.0667 125.815C97.3933 125.208 97.846 124.742 98.4247 124.415C99.0033 124.079 99.666 123.911 100.413 123.911C101.374 123.911 102.167 124.154 102.793 124.639C103.427 125.115 103.852 125.787 104.067 126.655H101.953C101.841 126.319 101.649 126.058 101.379 125.871C101.117 125.675 100.791 125.577 100.399 125.577C99.8387 125.577 99.3953 125.782 99.0687 126.193C98.742 126.594 98.5787 127.168 98.5787 127.915C98.5787 128.652 98.742 129.226 99.0687 129.637C99.3953 130.038 99.8387 130.239 100.399 130.239C101.192 130.239 101.71 129.884 101.953 129.175H104.067C103.852 130.015 103.427 130.682 102.793 131.177C102.158 131.672 101.365 131.919 100.413 131.919C99.666 131.919 99.0033 131.756 98.4247 131.429C97.846 131.093 97.3933 130.626 97.0667 130.029C96.74 129.422 96.5767 128.718 96.5767 127.915ZM107.925 125.647V129.399C107.925 129.66 107.985 129.852 108.107 129.973C108.237 130.085 108.452 130.141 108.751 130.141H109.661V131.793H108.429C106.777 131.793 105.951 130.99 105.951 129.385V125.647H105.027V124.037H105.951V122.119H107.925V124.037H109.661V125.647H107.925ZM112.204 123.113C111.859 123.113 111.57 123.006 111.336 122.791C111.112 122.567 111 122.292 111 121.965C111 121.638 111.112 121.368 111.336 121.153C111.57 120.929 111.859 120.817 112.204 120.817C112.55 120.817 112.834 120.929 113.058 121.153C113.292 121.368 113.408 121.638 113.408 121.965C113.408 122.292 113.292 122.567 113.058 122.791C112.834 123.006 112.55 123.113 112.204 123.113ZM113.17 124.037V131.793H111.21V124.037H113.17ZM118.691 131.919C117.944 131.919 117.272 131.756 116.675 131.429C116.077 131.093 115.606 130.622 115.261 130.015C114.925 129.408 114.757 128.708 114.757 127.915C114.757 127.122 114.929 126.422 115.275 125.815C115.629 125.208 116.11 124.742 116.717 124.415C117.323 124.079 118 123.911 118.747 123.911C119.493 123.911 120.17 124.079 120.777 124.415C121.383 124.742 121.859 125.208 122.205 125.815C122.559 126.422 122.737 127.122 122.737 127.915C122.737 128.708 122.555 129.408 122.191 130.015C121.836 130.622 121.351 131.093 120.735 131.429C120.128 131.756 119.447 131.919 118.691 131.919ZM118.691 130.211C119.045 130.211 119.377 130.127 119.685 129.959C120.002 129.782 120.254 129.52 120.441 129.175C120.627 128.83 120.721 128.41 120.721 127.915C120.721 127.178 120.525 126.613 120.133 126.221C119.75 125.82 119.279 125.619 118.719 125.619C118.159 125.619 117.687 125.82 117.305 126.221C116.931 126.613 116.745 127.178 116.745 127.915C116.745 128.652 116.927 129.222 117.291 129.623C117.664 130.015 118.131 130.211 118.691 130.211ZM128.613 123.925C129.537 123.925 130.283 124.219 130.853 124.807C131.422 125.386 131.707 126.198 131.707 127.243V131.793H129.747V127.509C129.747 126.893 129.593 126.422 129.285 126.095C128.977 125.759 128.557 125.591 128.025 125.591C127.483 125.591 127.054 125.759 126.737 126.095C126.429 126.422 126.275 126.893 126.275 127.509V131.793H124.315V124.037H126.275V125.003C126.536 124.667 126.867 124.406 127.269 124.219C127.679 124.023 128.127 123.925 128.613 123.925Z" fill="white"/>
<path opacity="0.3" d="M1.69196 113.46V40.6605C1.69196 35.2107 5.24454 30.3675 10.5149 28.6618L51.2541 15.4768L91.9933 2.2919C94.5959 1.44957 97.4041 1.44957 100.007 2.2919L140.746 15.4768L181.485 28.6618C186.756 30.3675 190.308 35.2107 190.308 40.6605V113.46C190.308 149.14 172.391 175.265 152.112 193.418C131.826 211.578 109.223 221.711 100.004 225.376C97.415 226.404 94.5851 226.404 91.9964 225.376C82.7774 221.711 60.1744 211.578 39.8877 193.418C19.6087 175.265 1.69196 149.14 1.69196 113.46Z" stroke="#F36879" stroke-width="1.5"/>
</svg>
