<svg xmlns="http://www.w3.org/2000/svg" width="149" height="35" viewBox="0 0 149 35" fill="none">
    <path fill-rule="evenodd" clip-rule="evenodd" d="M0 15.1433V4.23029L13.4314 0.160156L26.8629 4.23029V15.1433C26.8629 26.0565 13.4314 30.2537 13.4314 30.2537C13.4314 30.2537 0 26.0565 0 15.1433ZM21.8261 14.4311C21.8261 19.0673 18.0677 22.8257 13.4314 22.8257C8.7952 22.8257 5.03679 19.0673 5.03679 14.4311C5.03679 9.79482 8.7952 6.03641 13.4314 6.03641C18.0677 6.03641 21.8261 9.79482 21.8261 14.4311Z" fill="#B5F8F1"/>
    <path fill-rule="evenodd" clip-rule="evenodd" d="M18.1904 12.5366L12.0323 18.0788L8.67256 15.055L9.7957 13.8071L12.0323 15.8201L17.0672 11.2887L18.1904 12.5366Z" fill="#B5F8F1"/>
    <path d="M50.4082 3.40625C52.4924 3.40625 54.3638 3.89538 56.0226 4.87364C57.7026 5.85189 59.0212 7.22358 59.9781 8.98869C60.9351 10.7325 61.4136 12.7103 61.4136 14.922C61.4136 17.1337 60.9351 19.1222 59.9781 20.8873C59.0212 22.6311 57.7026 23.9922 56.0226 24.9704C54.3638 25.9487 52.4924 26.4378 50.4082 26.4378C48.3241 26.4378 46.4314 25.9487 44.7301 24.9704C43.05 23.9922 41.7315 22.6311 40.7745 20.8873C39.8175 19.1222 39.3391 17.1337 39.3391 14.922C39.3391 12.7103 39.8175 10.7325 40.7745 8.98869C41.7315 7.22358 43.05 5.85189 44.7301 4.87364C46.4314 3.89538 48.3241 3.40625 50.4082 3.40625ZM50.4082 6.11772C48.8558 6.11772 47.4628 6.47925 46.2294 7.20231C45.0172 7.9041 44.0602 8.92489 43.3584 10.2647C42.6779 11.5832 42.3376 13.1356 42.3376 14.922C42.3376 16.6871 42.6779 18.2396 43.3584 19.5794C44.0602 20.9192 45.0172 21.9506 46.2294 22.6736C47.4628 23.3754 48.8558 23.7263 50.4082 23.7263C51.9394 23.7263 53.3111 23.3648 54.5233 22.6418C55.7568 21.9187 56.7137 20.8979 57.3943 19.5794C58.0961 18.2396 58.447 16.6871 58.447 14.922C58.447 13.1356 58.0961 11.5832 57.3943 10.2647C56.7137 8.92489 55.7568 7.9041 54.5233 7.20231C53.3111 6.47925 51.9394 6.11772 50.4082 6.11772Z" fill="#B5F8F1"/>
    <path d="M75.3224 8.4464C76.8748 8.4464 78.2571 8.80793 79.4693 9.53099C80.6815 10.254 81.6279 11.2961 82.3084 12.6572C83.0102 14.0182 83.3611 15.6132 83.3611 17.4421C83.3611 19.271 83.0102 20.866 82.3084 22.2271C81.6279 23.5668 80.6815 24.5983 79.4693 25.3213C78.2571 26.0444 76.8748 26.4059 75.3224 26.4059C73.6211 26.4059 72.1749 25.9806 70.984 25.1299C69.8144 24.258 69.0062 23.1202 68.5596 21.7167V34.4765H65.6568V8.6697H68.5596V13.1356C69.0062 11.7321 69.8144 10.6049 70.984 9.75428C72.1749 8.88236 73.6211 8.4464 75.3224 8.4464ZM74.493 11.0303C73.3659 11.0303 72.3451 11.2961 71.4306 11.8278C70.5162 12.3382 69.8037 13.0825 69.2933 14.0607C68.7829 15.039 68.5277 16.1661 68.5277 17.4421C68.5277 18.7181 68.7829 19.8452 69.2933 20.8235C69.8037 21.7805 70.5162 22.5248 71.4306 23.0564C72.3451 23.5881 73.3659 23.8539 74.493 23.8539C76.3006 23.8539 77.7361 23.2904 78.7994 22.1633C79.884 21.0149 80.4263 19.4412 80.4263 17.4421C80.4263 15.4431 79.884 13.88 78.7994 12.7529C77.7361 11.6045 76.3006 11.0303 74.493 11.0303Z" fill="#B5F8F1"/>
    <path d="M95.8284 23.6306V26.1826H93.6592C91.8728 26.1826 90.533 25.7573 89.6398 24.9066C88.7679 24.056 88.332 22.6311 88.332 20.6321V11.1898H85.7162V8.6697H88.332V4.29944H91.2667V8.6697H95.7965V11.1898H91.2667V20.6959C91.2667 21.823 91.4688 22.5992 91.8728 23.0245C92.2981 23.4286 93.0212 23.6306 94.042 23.6306H95.8284Z" fill="#B5F8F1"/>
    <path d="M115.799 16.4532C115.799 17.0699 115.757 17.6016 115.671 18.0482H101.668C101.731 20.0472 102.295 21.5465 103.358 22.5461C104.443 23.5456 105.761 24.0453 107.314 24.0453C108.717 24.0453 109.887 23.6944 110.823 22.9926C111.78 22.2696 112.365 21.3126 112.577 20.1217H115.671C115.459 21.3339 114.98 22.4185 114.236 23.3754C113.513 24.3324 112.567 25.0768 111.397 25.6084C110.227 26.1401 108.909 26.4059 107.441 26.4059C105.761 26.4059 104.273 26.0444 102.975 25.3213C101.678 24.5983 100.657 23.5668 99.913 22.2271C99.19 20.866 98.8284 19.271 98.8284 17.4421C98.8284 15.6132 99.19 14.0182 99.913 12.6572C100.657 11.2961 101.678 10.254 102.975 9.53099C104.273 8.80793 105.761 8.4464 107.441 8.4464C109.143 8.4464 110.621 8.80793 111.875 9.53099C113.151 10.254 114.119 11.2217 114.778 12.4339C115.459 13.646 115.799 14.9858 115.799 16.4532ZM112.864 16.6446C112.928 15.3474 112.715 14.2628 112.226 13.3908C111.737 12.5189 111.067 11.8703 110.217 11.445C109.366 11.0196 108.441 10.807 107.441 10.807C105.846 10.807 104.507 11.3067 103.422 12.3063C102.337 13.2845 101.753 14.7306 101.668 16.6446H112.864Z" fill="#B5F8F1"/>
    <path d="M122.818 12.2106C123.392 10.9984 124.232 10.0626 125.338 9.40339C126.444 8.72286 127.762 8.3826 129.293 8.3826V11.5407H128.4C126.763 11.5407 125.423 11.966 124.381 12.8167C123.339 13.646 122.818 15.0284 122.818 16.9636V26.1826H119.915V8.6697H122.818V12.2106Z" fill="#B5F8F1"/>
    <path d="M133.689 8.6697L139.367 22.4504L144.63 8.6697H147.852L137.453 34.4765H134.167L137.804 25.8955L130.435 8.6697H133.689Z" fill="#B5F8F1"/>
</svg>