<svg width="278" height="333" viewBox="0 0 278 333" fill="none" xmlns="http://www.w3.org/2000/svg">
<g filter="url(#filter0_d_31640_98624)">
<path fill-rule="evenodd" clip-rule="evenodd" d="M61.8774 165.545V106.612C61.8774 101.933 64.9345 97.782 69.4568 96.3216L102.509 85.648L135.562 74.9745C137.795 74.2533 140.205 74.2533 142.438 74.9745L175.491 85.648L208.543 96.3216C213.066 97.782 216.123 101.933 216.123 106.612V165.545C216.123 223.768 157.495 250.75 142.473 256.708C140.228 257.598 137.772 257.598 135.527 256.708C120.505 250.75 61.8774 223.768 61.8774 165.545Z" fill="#1FD68D" fill-opacity="0.07" shape-rendering="crispEdges"/>
<path d="M62.6274 165.545V106.612C62.6274 102.265 65.468 98.3978 69.6873 97.0353L102.74 86.3617L135.792 75.6882C137.876 75.0154 140.124 75.0154 142.208 75.6882L175.26 86.3617L208.313 97.0353C212.532 98.3978 215.373 102.265 215.373 106.612V165.545C215.373 194.375 200.865 215.488 184.431 230.166C167.99 244.851 149.669 253.047 142.196 256.011C140.13 256.83 137.871 256.83 135.804 256.011C128.331 253.047 110.01 244.851 93.5687 230.166C77.1349 215.488 62.6274 194.375 62.6274 165.545Z" stroke="#1FD68D" stroke-width="1.5"/>
</g>
<path d="M109.333 147.045C109.333 147.568 109.207 148.058 108.955 148.515C108.712 148.972 108.325 149.341 107.793 149.621C107.27 149.901 106.608 150.041 105.805 150.041H104.167V153.793H102.207V144.021H105.805C106.561 144.021 107.205 144.152 107.737 144.413C108.269 144.674 108.666 145.034 108.927 145.491C109.198 145.948 109.333 146.466 109.333 147.045ZM105.721 148.459C106.262 148.459 106.664 148.338 106.925 148.095C107.186 147.843 107.317 147.493 107.317 147.045C107.317 146.093 106.785 145.617 105.721 145.617H104.167V148.459H105.721ZM112.824 147.241C113.076 146.83 113.403 146.508 113.804 146.275C114.215 146.042 114.682 145.925 115.204 145.925V147.983H114.686C114.07 147.983 113.604 148.128 113.286 148.417C112.978 148.706 112.824 149.21 112.824 149.929V153.793H110.864V146.037H112.824V147.241ZM120.109 153.919C119.362 153.919 118.69 153.756 118.093 153.429C117.495 153.093 117.024 152.622 116.679 152.015C116.343 151.408 116.175 150.708 116.175 149.915C116.175 149.122 116.347 148.422 116.693 147.815C117.047 147.208 117.528 146.742 118.135 146.415C118.741 146.079 119.418 145.911 120.165 145.911C120.911 145.911 121.588 146.079 122.195 146.415C122.801 146.742 123.277 147.208 123.623 147.815C123.977 148.422 124.155 149.122 124.155 149.915C124.155 150.708 123.973 151.408 123.609 152.015C123.254 152.622 122.769 153.093 122.153 153.429C121.546 153.756 120.865 153.919 120.109 153.919ZM120.109 152.211C120.463 152.211 120.795 152.127 121.103 151.959C121.42 151.782 121.672 151.52 121.859 151.175C122.045 150.83 122.139 150.41 122.139 149.915C122.139 149.178 121.943 148.613 121.551 148.221C121.168 147.82 120.697 147.619 120.137 147.619C119.577 147.619 119.105 147.82 118.723 148.221C118.349 148.613 118.163 149.178 118.163 149.915C118.163 150.652 118.345 151.222 118.709 151.623C119.082 152.015 119.549 152.211 120.109 152.211ZM128.014 147.647V151.399C128.014 151.66 128.075 151.852 128.196 151.973C128.327 152.085 128.542 152.141 128.84 152.141H129.75V153.793H128.518C126.866 153.793 126.04 152.99 126.04 151.385V147.647H125.116V146.037H126.04V144.119H128.014V146.037H129.75V147.647H128.014ZM138.51 149.747C138.51 150.027 138.491 150.279 138.454 150.503H132.784C132.831 151.063 133.027 151.502 133.372 151.819C133.717 152.136 134.142 152.295 134.646 152.295C135.374 152.295 135.892 151.982 136.2 151.357H138.314C138.09 152.104 137.661 152.72 137.026 153.205C136.391 153.681 135.612 153.919 134.688 153.919C133.941 153.919 133.269 153.756 132.672 153.429C132.084 153.093 131.622 152.622 131.286 152.015C130.959 151.408 130.796 150.708 130.796 149.915C130.796 149.112 130.959 148.408 131.286 147.801C131.613 147.194 132.07 146.728 132.658 146.401C133.246 146.074 133.923 145.911 134.688 145.911C135.425 145.911 136.083 146.07 136.662 146.387C137.25 146.704 137.703 147.157 138.02 147.745C138.347 148.324 138.51 148.991 138.51 149.747ZM136.48 149.187C136.471 148.683 136.289 148.282 135.934 147.983C135.579 147.675 135.145 147.521 134.632 147.521C134.147 147.521 133.736 147.67 133.4 147.969C133.073 148.258 132.873 148.664 132.798 149.187H136.48ZM139.577 149.915C139.577 149.112 139.74 148.412 140.067 147.815C140.393 147.208 140.846 146.742 141.425 146.415C142.003 146.079 142.666 145.911 143.413 145.911C144.374 145.911 145.167 146.154 145.793 146.639C146.427 147.115 146.852 147.787 147.067 148.655H144.953C144.841 148.319 144.649 148.058 144.379 147.871C144.117 147.675 143.791 147.577 143.399 147.577C142.839 147.577 142.395 147.782 142.069 148.193C141.742 148.594 141.579 149.168 141.579 149.915C141.579 150.652 141.742 151.226 142.069 151.637C142.395 152.038 142.839 152.239 143.399 152.239C144.192 152.239 144.71 151.884 144.953 151.175H147.067C146.852 152.015 146.427 152.682 145.793 153.177C145.158 153.672 144.365 153.919 143.413 153.919C142.666 153.919 142.003 153.756 141.425 153.429C140.846 153.093 140.393 152.626 140.067 152.029C139.74 151.422 139.577 150.718 139.577 149.915ZM150.925 147.647V151.399C150.925 151.66 150.985 151.852 151.107 151.973C151.237 152.085 151.452 152.141 151.751 152.141H152.661V153.793H151.429C149.777 153.793 148.951 152.99 148.951 151.385V147.647H148.027V146.037H148.951V144.119H150.925V146.037H152.661V147.647H150.925ZM155.204 145.113C154.859 145.113 154.57 145.006 154.336 144.791C154.112 144.567 154 144.292 154 143.965C154 143.638 154.112 143.368 154.336 143.153C154.57 142.929 154.859 142.817 155.204 142.817C155.55 142.817 155.834 142.929 156.058 143.153C156.292 143.368 156.408 143.638 156.408 143.965C156.408 144.292 156.292 144.567 156.058 144.791C155.834 145.006 155.55 145.113 155.204 145.113ZM156.17 146.037V153.793H154.21V146.037H156.17ZM161.691 153.919C160.944 153.919 160.272 153.756 159.675 153.429C159.077 153.093 158.606 152.622 158.261 152.015C157.925 151.408 157.757 150.708 157.757 149.915C157.757 149.122 157.929 148.422 158.275 147.815C158.629 147.208 159.11 146.742 159.717 146.415C160.323 146.079 161 145.911 161.747 145.911C162.493 145.911 163.17 146.079 163.777 146.415C164.383 146.742 164.859 147.208 165.205 147.815C165.559 148.422 165.737 149.122 165.737 149.915C165.737 150.708 165.555 151.408 165.191 152.015C164.836 152.622 164.351 153.093 163.735 153.429C163.128 153.756 162.447 153.919 161.691 153.919ZM161.691 152.211C162.045 152.211 162.377 152.127 162.685 151.959C163.002 151.782 163.254 151.52 163.441 151.175C163.627 150.83 163.721 150.41 163.721 149.915C163.721 149.178 163.525 148.613 163.133 148.221C162.75 147.82 162.279 147.619 161.719 147.619C161.159 147.619 160.687 147.82 160.305 148.221C159.931 148.613 159.745 149.178 159.745 149.915C159.745 150.652 159.927 151.222 160.291 151.623C160.664 152.015 161.131 152.211 161.691 152.211ZM171.613 145.925C172.537 145.925 173.283 146.219 173.853 146.807C174.422 147.386 174.707 148.198 174.707 149.243V153.793H172.747V149.509C172.747 148.893 172.593 148.422 172.285 148.095C171.977 147.759 171.557 147.591 171.025 147.591C170.483 147.591 170.054 147.759 169.737 148.095C169.429 148.422 169.275 148.893 169.275 149.509V153.793H167.315V146.037H169.275V147.003C169.536 146.667 169.867 146.406 170.269 146.219C170.679 146.023 171.127 145.925 171.613 145.925ZM133.211 174.891C132.296 174.891 131.456 174.676 130.691 174.247C129.926 173.818 129.319 173.225 128.871 172.469C128.423 171.704 128.199 170.84 128.199 169.879C128.199 168.927 128.423 168.073 128.871 167.317C129.319 166.552 129.926 165.954 130.691 165.525C131.456 165.096 132.296 164.881 133.211 164.881C134.135 164.881 134.975 165.096 135.731 165.525C136.496 165.954 137.098 166.552 137.537 167.317C137.985 168.073 138.209 168.927 138.209 169.879C138.209 170.84 137.985 171.704 137.537 172.469C137.098 173.225 136.496 173.818 135.731 174.247C134.966 174.676 134.126 174.891 133.211 174.891ZM133.211 173.141C133.799 173.141 134.317 173.01 134.765 172.749C135.213 172.478 135.563 172.096 135.815 171.601C136.067 171.106 136.193 170.532 136.193 169.879C136.193 169.226 136.067 168.656 135.815 168.171C135.563 167.676 135.213 167.298 134.765 167.037C134.317 166.776 133.799 166.645 133.211 166.645C132.623 166.645 132.1 166.776 131.643 167.037C131.195 167.298 130.845 167.676 130.593 168.171C130.341 168.656 130.215 169.226 130.215 169.879C130.215 170.532 130.341 171.106 130.593 171.601C130.845 172.096 131.195 172.478 131.643 172.749C132.1 173.01 132.623 173.141 133.211 173.141ZM148.165 174.793H146.205L141.767 168.087V174.793H139.807V165.007H141.767L146.205 171.727V165.007H148.165V174.793Z" fill="white"/>
<path opacity="0.3" d="M44.692 165.46V92.6605C44.692 87.2107 48.2445 82.3675 53.5149 80.6618L94.2541 67.4768L134.993 54.2919C137.596 53.4496 140.404 53.4496 143.007 54.2919L183.746 67.4768L224.485 80.6618C229.756 82.3675 233.308 87.2107 233.308 92.6605V165.46C233.308 201.14 215.391 227.265 195.112 245.418C174.826 263.578 152.223 273.711 143.004 277.376C140.415 278.404 137.585 278.404 134.996 277.376C125.777 273.711 103.174 263.578 82.8877 245.418C62.6087 227.265 44.692 201.14 44.692 165.46Z" stroke="#1FD68D" stroke-width="1.5"/>
<path opacity="0.2" fill-rule="evenodd" clip-rule="evenodd" d="M24 165.956V76.7233C24 69.6374 28.5584 63.3527 35.3019 61.1415L133.873 28.819C137.204 27.727 140.796 27.727 144.127 28.819L242.698 61.1415C249.442 63.3527 254 69.6374 254 76.7233V165.956C254 254.113 166.578 294.968 144.179 303.989C140.832 305.337 137.168 305.337 133.821 303.989C111.422 294.968 24 254.113 24 165.956Z" stroke="#1FD68D"/>
<defs>
<filter id="filter0_d_31640_98624" x="26.0065" y="42.1497" width="225.987" height="254.683" filterUnits="userSpaceOnUse" color-interpolation-filters="sRGB">
<feFlood flood-opacity="0" result="BackgroundImageFix"/>
<feColorMatrix in="SourceAlpha" type="matrix" values="0 0 0 0 0 0 0 0 0 0 0 0 0 0 0 0 0 0 127 0" result="hardAlpha"/>
<feOffset dy="3.5871"/>
<feGaussianBlur stdDeviation="17.9355"/>
<feComposite in2="hardAlpha" operator="out"/>
<feColorMatrix type="matrix" values="0 0 0 0 0.12 0 0 0 0 0.84 0 0 0 0 0.552 0 0 0 0.1 0"/>
<feBlend mode="normal" in2="BackgroundImageFix" result="effect1_dropShadow_31640_98624"/>
<feBlend mode="normal" in="SourceGraphic" in2="effect1_dropShadow_31640_98624" result="shape"/>
</filter>
</defs>
</svg>
